<?xml version="1.0" standalone="no"?>
<!DOCTYPE svg PUBLIC "-//W3C//DTD SVG 20010904//EN"
 "http://www.w3.org/TR/2001/REC-SVG-20010904/DTD/svg10.dtd">
<svg version="1.0" xmlns="http://www.w3.org/2000/svg"
 width="16.000000pt" height="16.000000pt" viewBox="0 0 16.000000 16.000000"
 preserveAspectRatio="xMidYMid meet">
<metadata>
Created by potrace 1.11, written by Peter Selinger 2001-2013
</metadata>
<g transform="translate(0.000000,16.000000) scale(0.003125,-0.003125)"
fill="#000000" stroke="none">
<path d="M4238 4407 c-38 -5 -68 -14 -68 -21 0 -8 -2 -8 -8 0 -5 7 -64 2 -197
-18 -104 -16 -212 -31 -240 -34 -57 -6 -69 -12 -37 -21 18 -4 20 -9 11 -24 -5
-10 -16 -19 -24 -19 -8 0 -15 -4 -15 -10 0 -5 -6 -7 -13 -4 -7 2 -21 -4 -31
-15 -10 -11 -23 -18 -27 -15 -5 3 -9 -1 -9 -8 0 -7 -23 -37 -50 -67 -28 -29
-50 -57 -50 -62 0 -18 30 -8 56 19 17 18 25 21 21 10 -9 -25 2 -22 35 9 15 15
28 22 28 15 0 -6 -5 -14 -10 -17 -18 -11 -2 -21 27 -18 108 14 183 28 183 35
0 4 6 5 13 2 8 -3 83 5 168 16 296 40 322 43 351 31 48 -18 59 -51 89 -252 15
-105 30 -194 33 -197 4 -3 17 5 30 17 15 14 26 18 30 12 4 -6 -9 -21 -28 -33
-21 -14 -34 -29 -31 -38 2 -8 9 -60 15 -115 7 -55 15 -104 18 -110 4 -5 5 -18
4 -27 -2 -12 3 -18 17 -18 25 0 32 -20 14 -41 -19 -22 -19 -19 19 -271 30
-195 35 -217 50 -212 22 7 25 -23 5 -50 -10 -14 -11 -34 -5 -80 15 -112 19
-127 29 -121 5 4 9 1 9 -4 0 -16 21 -13 42 5 16 16 18 15 24 0 4 -11 0 -22
-12 -30 -11 -8 -29 -22 -41 -32 l-23 -19 55 -390 c86 -606 83 -576 55 -632
-26 -52 -41 -68 -51 -51 -10 16 -49 -9 -49 -32 0 -10 -4 -22 -10 -25 -5 -3
-10 -17 -10 -31 0 -13 -6 -24 -13 -24 -7 0 -21 -11 -31 -25 -10 -14 -24 -25
-30 -25 -6 0 -31 -18 -56 -39 -30 -27 -39 -39 -25 -36 11 2 37 7 57 10 31 5
39 11 49 40 7 19 20 35 28 35 12 0 12 -3 3 -12 -7 -7 -12 -19 -12 -27 0 -11 4
-10 14 5 8 10 18 16 22 12 4 -4 1 -14 -6 -23 -11 -13 -9 -15 11 -15 92 1 223
60 274 124 14 17 29 36 35 43 14 17 40 126 40 169 0 42 -108 819 -117 844 -3
8 -7 33 -9 55 -2 22 -5 51 -8 65 -3 14 -12 74 -21 135 -9 60 -18 112 -20 114
-3 2 -12 -10 -22 -28 -20 -34 -41 -44 -23 -10 14 25 6 36 -14 20 -8 -6 -20
-10 -27 -9 -7 2 -15 -6 -17 -17 -2 -11 -9 -24 -14 -30 -7 -7 -8 -3 -3 13 3 12
8 34 9 48 2 14 15 36 29 49 29 24 35 37 14 29 -17 -6 -47 57 -40 84 2 11 -3
34 -12 52 -9 17 -20 50 -24 73 l-8 42 -13 -27 c-19 -40 -40 -44 -36 -7 2 16 0
32 -5 35 -16 9 -9 61 10 78 17 15 19 15 25 1 3 -9 -1 -27 -10 -40 -16 -24 -16
-24 19 -22 34 3 35 2 32 -26 -2 -16 3 -40 12 -53 8 -13 13 -24 9 -24 -3 0 3
-15 13 -33 13 -23 16 -39 10 -55 -8 -22 7 -52 26 -52 9 0 40 -32 40 -41 0 -4
3 -11 8 -15 10 -10 8 27 -6 114 -7 41 -15 70 -19 67 -4 -4 -12 -4 -17 0 -8 4
-6 12 5 23 12 11 13 17 5 20 -7 2 -8 8 -3 15 5 7 5 42 -1 85 -9 58 -14 72 -28
72 -21 0 -43 -35 -33 -51 4 -7 -1 -10 -12 -7 -24 4 -29 32 -10 49 37 34 47 40
56 34 11 -7 14 8 4 18 -3 3 -7 41 -9 84 -3 89 -10 113 -34 113 -14 1 -14 2 1
14 17 12 15 30 -26 322 -25 170 -52 332 -60 360 -17 54 -92 141 -144 168 -23
11 -93 30 -152 40 -8 2 -45 -1 -82 -7z"/>
<path d="M3579 4315 c-3 -2 -22 -5 -43 -7 -20 -1 -40 -6 -42 -10 -3 -5 -10 -6
-15 -2 -13 8 -293 -36 -297 -47 -2 -5 -8 -6 -14 -3 -6 4 -14 1 -18 -5 -5 -9
-13 -9 -33 0 -15 7 -30 10 -32 7 -11 -11 29 -78 46 -78 24 0 43 -26 34 -47 -8
-17 -8 -17 -12 0 -5 18 -33 24 -33 7 0 -5 5 -10 10 -10 6 0 10 -7 10 -15 0 -9
7 -18 15 -21 8 -4 13 -10 10 -14 -3 -5 0 -12 6 -16 7 -4 19 3 30 17 10 13 21
21 25 17 4 -4 2 -14 -4 -21 -7 -8 -10 -16 -7 -18 8 -9 75 3 75 13 0 5 13 7 29
3 25 -5 31 -2 48 31 20 40 53 63 38 28 -18 -45 -18 -54 3 -54 16 0 23 11 33
50 7 27 16 47 19 45 4 -2 18 8 31 23 21 24 24 25 27 9 2 -12 9 -16 19 -13 8 3
17 6 19 6 2 0 4 13 4 28 0 21 8 32 33 46 17 11 40 27 50 38 17 17 16 18 -21
18 -21 0 -41 -2 -43 -5z"/>
<path d="M2963 4231 c-24 -4 -44 -9 -46 -12 -2 -2 -11 -16 -20 -31 -22 -35
-37 -36 -37 -3 0 26 0 26 -62 19 -121 -13 -310 -43 -316 -50 -4 -4 -1 -9 6
-11 21 -8 13 -25 -8 -18 -15 5 -23 0 -30 -17 -19 -43 -79 -122 -87 -114 -5 5
15 42 35 68 10 11 11 22 4 34 -5 9 -7 25 -5 35 6 22 -4 23 -44 8 -15 -6 -65
-12 -111 -15 -46 -2 -89 -7 -95 -11 -7 -4 -25 -6 -41 -4 -28 3 -29 2 -23 -33
3 -20 2 -34 -2 -31 -12 7 -28 -15 -36 -47 -6 -24 -9 -25 -21 -13 -19 18 -18
21 11 59 14 18 25 38 25 44 0 15 -95 4 -133 -15 -17 -9 -40 -12 -58 -8 -39 9
-89 -3 -89 -21 0 -8 6 -14 14 -14 9 0 12 -7 9 -20 -3 -11 -11 -20 -19 -20 -8
0 -11 7 -8 18 4 9 -3 4 -15 -13 -25 -36 -26 -45 -6 -45 8 0 15 5 15 12 0 6 3
9 6 5 4 -3 3 -14 0 -24 -4 -10 -6 -19 -4 -20 9 -4 -53 -43 -69 -43 -15 0 -16
-2 -3 -10 12 -8 11 -10 -7 -10 -28 0 -35 12 -24 42 6 12 10 19 10 14 1 -5 12
1 26 14 13 12 22 27 19 31 -2 4 2 25 11 45 8 20 15 38 15 40 0 9 -50 3 -56 -7
-5 -8 -9 -8 -14 1 -9 14 -50 -25 -50 -47 0 -7 -4 -14 -10 -14 -5 -1 -15 -2
-20 -3 -6 0 -21 -14 -34 -30 l-23 -29 -1 31 c0 18 4 32 9 32 5 0 9 9 9 20 0
24 -31 27 -49 6 -7 -8 -26 -18 -42 -21 -29 -7 -41 -25 -16 -25 6 0 4 -5 -6
-11 -9 -6 -15 -14 -12 -18 2 -5 -2 -14 -10 -21 -8 -7 -12 -17 -9 -22 8 -12
-14 -28 -39 -28 -15 0 -16 3 -6 23 7 12 18 26 25 30 8 4 14 13 14 18 0 6 -4 7
-10 4 -21 -13 -9 13 21 43 17 18 30 32 28 32 -2 0 -31 -5 -64 -11 -66 -12
-100 -17 -159 -24 -35 -4 -55 -17 -56 -37 0 -14 20 -19 40 -8 13 7 20 7 20 0
0 -5 -5 -10 -11 -10 -6 0 -9 -7 -5 -15 3 -8 2 -15 -2 -16 -4 0 -20 -2 -37 -4
-20 -3 -34 1 -42 12 -10 13 -15 14 -27 4 -13 -11 -14 -8 -9 23 6 40 16 38 -90
21 -17 -3 -57 -8 -87 -12 -30 -3 -58 -10 -61 -16 -4 -5 -12 -7 -18 -3 -10 7
-393 -45 -483 -65 -54 -12 -139 -68 -181 -121 -19 -24 -36 -63 -47 -111 l-18
-75 70 -478 c38 -264 71 -495 74 -514 7 -61 44 -284 50 -303 3 -9 10 -15 15
-12 12 8 11 -2 -2 -26 -15 -29 8 -180 27 -172 8 3 14 0 14 -6 0 -6 -6 -11 -13
-11 -9 0 -12 -11 -9 -35 2 -19 7 -35 11 -35 3 0 7 -34 8 -75 1 -41 6 -82 12
-92 6 -10 11 -13 11 -7 0 7 11 15 25 18 27 7 55 51 55 87 0 17 4 20 22 15 13
-3 29 -6 36 -6 6 0 12 -7 12 -15 0 -9 9 -15 21 -15 19 0 21 4 14 38 -8 39 -10
51 -20 147 -4 33 -10 64 -12 69 -3 4 -6 26 -7 48 -2 22 -8 43 -15 48 -8 5 -9
9 -3 11 7 3 -10 156 -51 446 -35 253 -66 439 -71 436 -5 -4 -7 7 -3 24 3 17 0
72 -8 124 -8 52 -15 97 -15 100 0 3 -11 4 -25 1 -31 -5 -33 13 -4 29 19 10 21
16 14 77 -8 76 -11 90 -20 114 -5 13 0 20 18 27 14 5 28 14 31 20 11 17 84 33
251 55 11 1 27 16 35 32 14 27 15 28 18 7 3 -21 7 -22 70 -16 37 3 72 11 77
17 6 7 33 10 70 9 46 -3 61 0 68 13 7 12 11 13 17 5 10 -17 189 6 213 27 12
11 17 12 17 3 0 -14 5 -13 175 15 50 8 115 17 145 20 57 5 73 17 64 47 -8 24
24 49 42 33 9 -8 9 -15 -2 -31 -22 -30 -17 -34 34 -29 76 7 92 12 92 35 0 11
4 18 9 15 5 -3 12 4 16 17 6 19 8 19 12 5 2 -10 10 -18 16 -18 7 -1 1 -10 -13
-22 -17 -15 -19 -19 -7 -15 10 4 28 7 40 8 12 0 17 3 11 5 -21 9 -3 39 39 64
22 14 55 40 73 58 22 21 35 28 40 21 4 -6 -1 -16 -10 -21 -10 -6 -16 -19 -14
-32 1 -13 -3 -30 -10 -39 -19 -23 -6 -37 34 -37 40 0 74 15 74 33 1 18 56 88
64 80 3 -3 6 -2 6 3 0 5 14 18 30 28 23 13 29 23 25 37 -4 13 -2 19 9 19 17 0
22 -30 7 -45 -5 -6 -14 -28 -21 -50 -7 -22 -17 -43 -23 -46 -5 -4 -7 -15 -3
-24 5 -15 9 -14 27 9 12 15 24 25 27 22 2 -3 -1 -13 -9 -22 -13 -16 -10 -17
31 -10 62 10 68 11 215 31 72 9 166 23 210 31 44 7 92 14 107 14 19 0 31 8 40
27 7 14 20 29 28 31 12 4 11 1 -3 -15 -20 -23 -12 -37 14 -23 9 6 19 6 21 1 2
-5 18 -6 36 -4 27 4 34 11 39 35 5 24 28 48 47 48 12 0 5 -29 -10 -45 -23 -23
-12 -28 40 -21 61 9 141 76 91 76 -8 0 -15 5 -15 10 0 6 -9 19 -21 31 -18 18
-19 25 -10 45 8 18 7 27 -4 37 -8 8 -12 16 -10 19 7 7 -47 6 -92 -1z"/>
<path d="M1135 3960 c-3 -5 3 -10 14 -10 12 0 21 5 21 10 0 6 -6 10 -14 10 -8
0 -18 -4 -21 -10z"/>
<path d="M3908 3955 c-2 -1 -23 -5 -48 -8 -149 -18 -180 -25 -180 -38 0 -5
-12 -20 -26 -32 l-26 -22 17 -105 c9 -58 18 -116 20 -130 2 -14 20 -135 39
-268 20 -134 39 -248 42 -253 3 -5 10 -7 15 -4 5 4 17 -2 26 -11 17 -16 16
-17 -10 -10 l-29 7 6 -63 c4 -35 9 -77 12 -93 l5 -31 107 14 c160 22 156 19
148 100 -9 86 -10 95 -19 109 -4 6 -7 24 -7 40 0 15 -6 69 -14 118 -20 116
-21 109 14 122 17 6 30 18 30 27 0 9 5 16 12 16 6 0 8 3 5 7 -4 3 0 15 10 25
15 17 15 18 0 18 -10 0 -17 5 -17 10 0 6 4 10 10 10 5 0 19 10 31 23 l22 22
-6 -25 c-7 -32 14 -63 38 -54 15 6 16 5 4 -15 -8 -12 -21 -23 -29 -26 -8 -3
-25 -20 -37 -39 -20 -32 -21 -39 -11 -100 11 -66 20 -80 32 -50 4 9 9 15 12
12 2 -3 -1 -18 -7 -34 -15 -37 -15 -42 1 -149 8 -49 14 -92 15 -95 3 -24 79
-41 107 -24 6 4 36 8 67 11 31 2 60 8 65 13 5 5 -1 70 -14 152 -25 165 -30
194 -34 228 -1 14 -4 30 -4 36 -4 23 -67 75 -105 85 l-40 11 40 18 c43 19 55
35 67 83 5 20 3 27 -9 27 -8 0 -15 7 -15 16 0 8 5 12 10 9 14 -8 13 79 -1 129
-8 29 -13 36 -20 25 -8 -12 -10 -12 -19 1 -15 24 -12 32 11 25 l20 -7 -20 39
c-21 41 -52 73 -88 92 -19 10 -215 15 -225 6z m81 -192 c13 -26 30 -148 24
-173 -8 -29 -53 -47 -69 -26 -7 11 -14 12 -21 5 -7 -7 -12 -2 -15 15 -3 15 1
31 8 37 17 14 18 51 2 67 -8 8 -8 12 -1 12 7 0 9 14 6 40 -6 39 -5 40 25 40
20 0 35 -7 41 -17z"/>
<path d="M3625 3909 c-12 -19 3 -22 27 -5 l22 16 -21 0 c-12 0 -25 -5 -28 -11z"/>
<path d="M3300 3869 c-25 -5 -82 -14 -127 -21 -46 -6 -83 -16 -83 -22 0 -6
-16 -22 -35 -35 -19 -13 -37 -32 -41 -43 -4 -13 -12 -18 -25 -15 -10 3 -19 2
-19 -2 0 -17 120 -859 128 -896 8 -39 9 -40 47 -36 22 1 49 8 60 14 11 6 24
10 29 9 14 -4 170 19 176 26 3 4 36 8 74 9 38 2 71 4 73 7 4 4 -15 170 -22
192 -2 8 -29 7 -96 -3 -50 -7 -93 -12 -95 -11 -1 2 -7 39 -13 83 -6 44 -14 94
-17 111 l-6 31 59 7 c116 14 110 6 92 132 l-12 76 -51 -6 c-28 -4 -65 -9 -82
-12 -35 -6 -32 -15 -50 132 l-6 52 58 11 c129 26 116 18 109 70 -4 25 -9 55
-13 66 -3 11 -4 31 -3 44 2 19 -1 22 -14 17 -13 -4 -16 -2 -11 9 6 17 -11 18
-84 4z"/>
<path d="M3001 3828 c-42 -9 -43 -11 -37 -41 3 -17 9 -33 11 -36 9 -8 57 48
50 59 -3 6 1 10 9 10 9 0 16 5 16 10 0 6 -1 10 -2 9 -2 -1 -23 -6 -47 -11z"/>
<path d="M2475 3753 c-148 -20 -231 -35 -238 -42 -5 -5 -16 -7 -23 -4 -8 3
-14 -1 -14 -8 0 -11 -3 -11 -10 1 -5 8 -10 10 -10 4 0 -5 5 -15 12 -22 8 -8 9
-15 2 -22 -7 -7 -6 -38 3 -98 7 -48 16 -105 18 -127 6 -42 43 -312 50 -355 2
-14 14 -99 26 -190 25 -190 32 -214 57 -206 9 3 56 10 105 16 122 15 138 24
131 69 -3 20 -15 109 -28 198 -25 183 -31 166 59 178 70 9 125 36 163 79 30
34 32 42 32 109 0 66 -12 172 -26 240 -3 16 -15 32 -27 37 -12 5 -16 9 -9 9
23 2 12 41 -22 78 -50 56 -127 73 -251 56z m124 -70 c-11 -13 -11 -17 -2 -20
10 -4 9 -10 -2 -26 -8 -12 -15 -34 -15 -50 0 -15 -6 -30 -13 -33 -11 -4 -12
-16 -1 -72 24 -123 18 -152 -34 -165 -18 -4 -23 0 -28 21 -4 15 -11 33 -17 40
-5 7 -6 12 0 12 6 0 5 32 -1 83 -10 74 -13 82 -33 85 -27 4 -31 20 -6 18 10 0
18 4 18 10 0 13 26 38 43 42 17 3 15 -9 -5 -24 -22 -15 -16 -22 25 -30 21 -4
32 -3 32 5 0 6 -5 11 -10 11 -7 0 -7 6 -1 18 5 9 17 34 26 55 9 20 21 37 27
37 6 0 5 -7 -3 -17z"/>
<path d="M1840 3663 c0 -11 66 -63 79 -63 16 0 13 -11 -6 -26 -17 -13 -17 -15
1 -29 16 -12 16 -15 4 -15 -24 0 -50 34 -36 48 9 9 7 16 -7 32 -10 11 -24 20
-32 20 -7 0 -13 3 -13 8 0 4 -24 7 -52 7 -49 -1 -53 -3 -57 -25 -3 -25 -3 -25
18 -6 22 20 30 9 9 -12 -9 -9 -5 -17 15 -35 15 -12 27 -28 27 -35 0 -18 10
-15 31 10 32 36 31 14 -2 -31 -19 -26 -36 -41 -44 -37 -8 3 -27 -1 -42 -9 -24
-13 -27 -20 -25 -52 2 -21 11 -44 20 -51 11 -8 13 -15 6 -20 -13 -9 -3 -108
11 -105 6 0 16 -5 22 -12 10 -11 10 -17 -2 -29 -19 -19 -19 -54 5 -211 25
-168 25 -201 1 -215 -34 -18 -47 10 -64 137 -9 65 -21 150 -27 188 -6 39 -13
88 -16 110 -7 51 -11 54 -25 21 -7 -14 -18 -26 -26 -26 -19 0 -16 12 10 40 25
27 32 60 13 60 -6 0 -5 4 2 9 11 6 11 21 3 72 -6 35 -14 79 -17 97 l-5 33 -29
-33 c-31 -35 -49 -34 -30 2 6 12 9 27 7 35 -3 7 5 18 19 25 19 11 24 21 24 53
0 31 -3 38 -15 33 -8 -3 -38 -8 -67 -12 -29 -4 -61 -13 -70 -22 -12 -10 -18
-11 -18 -4 0 17 -21 15 -43 -5 -18 -17 -19 -17 -28 0 -20 34 -30 6 -24 -61 4
-37 8 -74 11 -82 2 -8 6 -35 9 -60 3 -24 9 -47 13 -50 4 -3 8 -36 10 -75 4
-105 60 -470 79 -518 47 -116 182 -175 340 -147 128 22 200 71 234 159 10 28
19 72 19 97 0 47 -76 607 -86 634 -3 8 -8 40 -10 70 -6 84 -13 110 -30 103 -8
-3 -14 0 -14 6 0 6 -17 11 -40 11 -22 0 -40 -3 -40 -7z"/>
<path d="M1684 3608 c3 -18 8 -51 11 -72 l7 -39 24 26 c24 27 32 43 14 32 -10
-6 -45 53 -42 73 2 6 -2 12 -8 12 -7 0 -9 -13 -6 -32z"/>
<path d="M849 3535 c-4 -15 -7 -22 -17 -48 -7 -16 -12 -31 -12 -34 0 -3 -9
-18 -21 -34 -11 -16 -18 -36 -15 -44 3 -8 2 -15 -3 -15 -5 0 -14 -13 -21 -29
-6 -16 -20 -31 -30 -34 -10 -3 -26 -20 -36 -38 -20 -41 -54 -85 -54 -72 0 16
36 81 70 123 27 34 30 44 19 51 -20 13 -29 11 -29 -6 0 -8 -8 -15 -17 -15 -13
0 -14 3 -5 12 7 7 12 20 12 29 0 10 3 19 8 21 4 2 17 16 30 32 12 16 22 26 22
22 0 -3 8 2 18 12 10 9 27 22 37 28 11 6 15 15 11 22 -9 14 -56 16 -56 2 0 -5
-6 -7 -13 -4 -15 5 -87 -22 -87 -34 0 -4 -13 -13 -30 -19 -16 -6 -34 -22 -39
-36 -6 -14 -15 -28 -21 -32 -9 -6 -9 -10 1 -16 11 -8 11 -11 -3 -20 -10 -5
-18 -17 -18 -26 0 -13 3 -13 15 -3 8 7 15 8 15 2 0 -5 -7 -15 -15 -22 -10 -8
-15 -30 -15 -63 l0 -51 29 28 c54 52 61 7 8 -51 -18 -20 -19 -27 -9 -61 21
-68 66 -106 220 -182 81 -40 149 -81 157 -94 8 -12 20 -47 25 -78 12 -65 2
-103 -31 -113 -35 -11 -54 22 -67 116 -7 45 -14 84 -17 87 -7 7 -208 -19 -229
-30 -15 -8 -17 -17 -11 -56 20 -141 66 -226 142 -264 41 -19 63 -23 148 -23
113 0 178 18 244 65 50 37 72 69 81 121 9 49 -3 171 -25 244 -15 55 -53 109
-61 89 -3 -6 -11 -20 -20 -30 -14 -18 -14 -17 -10 11 2 17 5 36 7 43 2 8 -5
19 -16 25 -11 7 -22 15 -25 18 -3 3 -57 32 -120 63 -63 31 -125 68 -137 81
-27 30 -40 104 -23 134 8 16 19 21 38 19 27 -3 38 -25 48 -103 3 -22 7 -41 9
-44 6 -5 224 27 237 36 7 4 4 11 -7 20 -11 7 -13 13 -7 13 29 0 -2 142 -41
186 -36 42 -53 47 -76 23 l-20 -22 2 28 c2 23 -3 30 -23 36 -29 8 -119 11
-121 4z"/>
<path d="M4275 2834 c-38 -7 -86 -13 -106 -13 -64 -2 -70 -13 -51 -109 10 -53
20 -81 27 -78 7 2 27 1 46 -4 l34 -8 -30 -1 c-54 -2 -56 -8 -38 -104 9 -48 20
-87 24 -87 3 0 9 13 12 28 4 20 12 28 26 28 25 0 25 -4 6 -30 -8 -11 -15 -30
-15 -42 0 -13 -5 -26 -11 -30 -7 -4 -9 -22 -5 -48 16 -103 78 -412 84 -418 8
-8 213 20 224 30 8 8 -28 458 -39 482 -3 8 -5 43 -4 77 2 34 0 67 -4 73 -3 6
-8 41 -11 78 -5 78 -11 135 -14 142 -1 3 -3 14 -4 24 0 11 -7 21 -15 24 -10 3
-12 0 -8 -12 5 -11 1 -16 -13 -16 -11 0 -20 5 -20 11 0 8 -6 7 -17 -2 -15 -12
-16 -12 -10 4 3 9 5 16 4 16 -1 -1 -33 -7 -72 -15z"/>
<path d="M3605 2741 c-18 -4 -29 -13 -27 -21 4 -16 -16 -30 -45 -30 -13 0 -24
-8 -28 -21 -7 -20 -7 -20 -25 -2 -16 17 -16 19 -1 37 15 18 15 19 -2 13 -10
-4 -28 -7 -40 -8 -12 0 -16 -3 -9 -6 20 -8 14 -23 -14 -35 -25 -11 -25 -15
-19 -68 9 -80 16 -101 28 -93 7 4 8 0 2 -13 -11 -26 -10 -36 30 -314 19 -135
38 -264 40 -288 16 -131 47 -317 53 -320 5 -1 6 -16 4 -32 -4 -27 -2 -30 25
-30 21 0 36 9 52 30 12 17 27 28 32 24 7 -4 7 -10 0 -17 -6 -6 -11 -15 -11
-20 0 -10 106 0 135 13 11 5 76 16 145 25 69 9 126 17 126 18 4 4 -32 227 -37
231 -9 10 -113 -11 -117 -23 -3 -9 -8 -9 -19 0 -12 10 -16 10 -23 -2 -6 -9
-12 -11 -19 -4 -9 9 -64 346 -75 465 -3 25 -8 67 -11 93 -7 47 -8 48 -26 31
-18 -16 -19 -16 -19 3 0 10 7 28 15 39 10 13 13 33 9 69 -8 73 -11 80 -29 65
-10 -8 -15 -9 -15 -2 0 6 7 15 16 20 10 5 14 18 12 33 -3 23 -4 23 -21 -8 -19
-35 -34 -43 -34 -18 0 8 4 15 9 15 5 0 7 4 4 9 -3 4 3 16 14 26 21 19 27 55
10 55 -6 0 -9 15 -8 33 3 29 0 32 -27 34 -16 0 -43 -2 -60 -6z"/>
<path d="M3385 2700 c-3 -5 1 -10 10 -10 9 0 13 5 10 10 -3 6 -8 10 -10 10 -2
0 -7 -4 -10 -10z"/>
<path d="M2980 2635 c0 -8 -7 -15 -16 -15 -8 0 -12 4 -9 10 4 6 -19 7 -62 3
-72 -6 -119 -22 -73 -23 19 -1 21 -3 8 -8 -9 -4 -30 -26 -47 -49 -20 -28 -36
-40 -45 -37 -13 5 -13 9 1 32 9 15 23 33 32 39 8 7 12 15 9 18 -7 7 -205 -12
-219 -21 -14 -8 -12 -574 2 -574 7 0 9 -10 4 -27 -11 -44 -6 -266 6 -274 8 -5
8 -9 0 -13 -7 -5 -11 -61 -11 -167 l0 -159 28 0 c39 1 279 37 291 44 9 6 4
134 -5 145 -2 2 -10 -2 -19 -9 -12 -10 -15 -10 -15 4 0 9 -5 16 -10 16 -15 0
28 62 58 84 24 18 26 18 38 1 8 -11 21 -16 34 -12 16 4 22 -1 29 -26 4 -18 13
-31 20 -30 14 4 15 -14 1 -19 -7 -2 -6 -24 4 -67 8 -35 16 -65 18 -67 6 -5
302 38 310 45 4 4 1 29 -8 56 -8 28 -51 174 -95 325 -45 151 -84 280 -89 285
-4 6 -11 25 -15 44 -4 19 -14 41 -22 49 -8 8 -12 21 -9 29 5 13 -17 98 -58
228 -8 22 -22 66 -32 98 -17 54 -34 75 -34 42z m-109 -127 c-4 -13 -6 -35 -4
-49 2 -16 -3 -32 -14 -40 -15 -12 -16 -12 -10 4 4 10 3 16 -2 12 -12 -7 -7
-132 7 -177 6 -18 13 -50 17 -70 3 -21 11 -38 17 -38 5 0 8 -7 4 -15 -3 -10 1
-15 11 -15 13 0 14 -3 5 -12 -13 -13 -17 -48 -5 -48 3 0 15 7 25 17 23 21 23
5 -1 -26 -18 -23 -18 -26 0 -95 27 -102 27 -103 -28 -109 -27 -3 -50 -3 -52
-1 -2 2 -4 25 -3 51 2 72 -6 103 -25 96 -13 -5 -15 0 -9 33 4 21 7 47 8 57 1
9 6 17 10 17 4 0 7 45 7 100 0 100 0 100 -25 100 -14 0 -23 -4 -20 -9 3 -4 -3
-16 -13 -25 -12 -11 -21 -13 -25 -7 -4 5 -2 13 4 16 7 4 7 11 2 18 -5 7 -8 26
-7 42 3 41 4 42 14 26 8 -12 12 -13 25 -2 12 11 14 17 5 27 -9 11 -8 14 3 14
8 0 24 20 36 44 25 49 27 66 10 67 -7 0 -4 4 7 9 31 13 35 12 26 -12z"/>
<path d="M4630 2625 c0 -8 7 -15 15 -15 9 0 12 6 9 15 -4 8 -10 15 -15 15 -5
0 -9 -7 -9 -15z"/>
<path d="M2109 2525 c-3 -2 -16 -7 -30 -9 -13 -2 -26 -5 -29 -6 -3 -1 -14 -1
-26 -1 -11 1 -52 -3 -90 -9 -38 -6 -87 -13 -109 -16 -22 -3 -51 -8 -65 -11
-14 -4 -29 -7 -33 -7 -4 -1 -12 -8 -17 -16 -8 -12 -10 -12 -10 5 0 12 -3 15
-9 10 -6 -6 -3 -43 6 -95 8 -47 14 -96 14 -108 -1 -13 3 -31 8 -40 7 -13 10
-12 15 6 8 24 41 30 49 10 7 -20 36 12 52 58 8 21 14 33 15 26 0 -10 13 -12
56 -7 51 5 56 4 44 -10 -7 -8 -21 -13 -30 -10 -25 8 -50 -5 -50 -25 0 -11 -4
-22 -10 -25 -5 -3 -10 -13 -10 -22 0 -14 -64 -83 -76 -83 -2 0 -12 -8 -21 -17
-19 -19 -18 -66 7 -215 l12 -67 31 5 c25 4 29 3 15 -5 -33 -22 -40 -70 -23
-182 9 -57 20 -106 26 -110 8 -5 8 -9 0 -13 -8 -5 -8 -13 -1 -27 6 -11 9 -23
6 -27 -5 -9 22 -203 29 -210 8 -8 350 41 356 51 4 5 15 7 24 3 16 -6 145 10
154 20 7 7 -20 218 -30 228 -9 10 -169 -9 -178 -22 -3 -4 -23 -8 -44 -10 -28
-1 -37 1 -34 10 2 7 10 12 16 11 14 -4 14 -8 -4 107 -21 138 -21 138 20 146
19 3 38 11 41 16 4 7 9 7 13 0 3 -6 23 -7 46 -3 36 6 40 9 43 39 2 17 0 32 -5
32 -4 0 -9 35 -10 77 -1 42 -6 80 -10 84 -5 5 -49 2 -98 -5 -50 -8 -91 -13
-92 -12 -1 0 -6 39 -12 86 -7 47 -14 97 -17 113 -5 24 -3 27 20 27 14 0 60 5
102 11 l76 12 -5 46 c-3 25 -8 69 -11 96 -11 94 -12 95 -60 95 -23 0 -45 -2
-47 -5z"/>
<path d="M988 2365 c-53 -7 -108 -21 -122 -30 -18 -12 -26 -13 -26 -5 0 13
-118 5 -134 -10 -5 -5 1 -73 14 -157 12 -81 24 -164 26 -183 3 -19 7 -48 10
-63 l6 -28 33 36 c19 19 38 35 43 35 6 0 16 14 24 30 13 31 33 39 41 18 6 -19
-40 -75 -68 -82 -16 -4 -25 -16 -30 -38 -4 -18 -12 -39 -18 -46 -5 -7 -7 -15
-4 -19 4 -3 3 -11 -3 -17 -5 -8 -1 -60 11 -141 26 -167 27 -173 33 -215 2 -19
9 -34 15 -33 14 4 14 -14 0 -23 -10 -6 -8 -51 7 -127 l6 -29 19 31 c10 17 23
31 29 31 14 0 13 -4 -15 -62 -14 -28 -25 -64 -25 -80 0 -24 4 -28 28 -28 39 0
73 11 66 21 -3 5 1 9 8 9 14 0 44 39 40 53 -1 4 6 10 15 14 10 3 25 12 34 20
14 12 17 12 22 -1 4 -9 -4 -21 -18 -30 -28 -18 -65 -57 -65 -67 0 -14 85 3
112 22 20 14 27 15 30 6 2 -11 25 -10 119 4 177 25 241 51 277 112 25 41 37
100 19 95 -6 -3 -16 -14 -22 -26 -5 -12 -14 -21 -20 -19 -15 5 -18 47 -3 48 7
0 0 7 -17 15 l-30 13 35 -1 c19 -1 41 -6 47 -11 10 -7 12 9 10 74 -2 55 -7 84
-15 87 -8 2 -10 8 -4 15 6 8 3 57 -9 132 -11 66 -21 145 -24 175 -7 85 -12
100 -33 93 -15 -6 -15 -4 2 15 12 14 16 28 11 39 -4 10 -9 34 -10 53 -2 19 -6
45 -9 58 -3 12 -8 30 -10 40 -17 70 -64 134 -121 165 -51 27 -197 32 -337 12z
m136 -220 c8 -9 18 -31 22 -50 3 -20 10 -38 15 -41 5 -3 7 -10 4 -15 -4 -5 -1
-9 5 -9 7 0 8 -6 1 -18 -7 -13 -2 -78 18 -219 27 -187 41 -241 66 -245 5 0 15
-2 20 -3 6 -2 14 -3 19 -4 6 0 0 -10 -12 -22 -12 -11 -20 -24 -17 -30 9 -13
-9 -11 -23 3 -9 9 -12 0 -12 -41 0 -50 -1 -53 -35 -67 -27 -11 -40 -12 -57 -3
-16 9 -18 13 -7 20 27 16 1 19 -35 4 -37 -16 -37 -15 -31 5 4 12 2 20 -5 20
-6 0 2 12 19 26 27 23 29 27 16 41 -25 24 -34 48 -31 79 2 16 -1 37 -6 47 -5
10 -7 21 -5 24 10 10 36 -54 30 -75 -4 -16 -1 -22 11 -22 10 0 13 -6 10 -15
-4 -9 0 -15 10 -15 20 0 19 10 -10 155 -3 17 -7 38 -7 48 -1 9 -4 17 -8 17 -4
0 -5 18 -2 40 3 21 2 47 -1 57 -7 17 -8 17 -22 -1 -11 -16 -11 -22 -1 -28 8
-5 5 -8 -9 -8 -35 0 -37 27 -3 57 27 25 29 31 23 68 -3 22 -9 44 -11 48 -3 5
-6 30 -8 55 -2 26 -6 66 -9 90 l-5 42 34 0 c18 0 40 -7 49 -15z"/>
<path d="M1225 1540 c10 -32 13 -36 25 -24 7 7 3 17 -11 30 -22 19 -22 19 -14
-6z"/>
<path d="M1763 2193 c-23 -16 -31 -43 -13 -43 10 0 45 48 39 54 -2 2 -14 -3
-26 -11z"/>
<path d="M4485 1889 c-22 -4 -79 -14 -128 -22 -48 -7 -89 -16 -92 -19 -6 -6
22 -219 30 -226 4 -4 130 11 190 23 11 2 35 4 53 4 l33 1 -6 63 c-16 177 -20
187 -80 176z"/>
<path d="M454 1815 c-18 -44 -49 -76 -67 -69 -10 4 -12 -7 -6 -53 4 -32 8 -71
8 -87 1 -26 3 -28 31 -22 35 7 36 3 11 -38 -21 -35 -21 -62 -1 -224 7 -57 19
-110 26 -117 8 -7 9 -16 4 -21 -13 -13 8 -137 25 -150 10 -8 11 -14 4 -21 -6
-6 -8 -20 -5 -31 6 -17 10 -18 31 -8 14 6 23 16 20 23 -2 7 1 26 6 43 8 22 17
30 36 30 l24 0 -20 -26 c-12 -15 -21 -36 -21 -47 0 -11 -11 -30 -25 -43 -32
-30 -32 -42 6 -87 47 -57 107 -93 186 -111 l71 -16 779 110 c428 60 911 128
1073 151 162 22 307 47 322 54 15 7 28 9 30 4 3 -8 35 -5 183 21 33 6 84 13
114 16 30 2 60 9 66 14 7 6 16 5 23 -2 9 -9 12 -9 12 1 0 9 9 12 25 9 22 -5
25 -2 20 16 -6 19 -5 20 8 4 12 -15 22 -16 72 -8 32 5 65 16 75 25 9 8 22 15
28 15 6 0 14 11 18 25 4 16 13 25 25 25 23 0 25 -23 4 -40 -21 -17 -19 -29 5
-27 11 1 20 5 20 9 0 4 6 8 13 8 8 0 22 9 32 20 21 24 37 26 29 5 -7 -18 19
-30 44 -20 9 4 28 8 42 9 18 1 29 10 41 34 8 19 18 32 21 30 3 -1 12 3 21 11
10 8 17 9 17 3 0 -6 -5 -14 -10 -17 -6 -4 -7 -11 -4 -17 4 -6 -1 -17 -11 -25
-18 -12 -17 -13 6 -12 35 0 94 22 94 34 0 6 10 24 23 40 18 23 25 26 32 16 5
-9 0 -23 -16 -40 -13 -14 -21 -27 -19 -29 7 -8 205 20 211 29 3 5 10 7 15 3
16 -9 153 16 169 31 10 10 11 15 2 15 -7 0 -12 9 -12 19 0 11 -6 22 -13 25 -8
3 -4 11 12 23 33 24 78 70 84 85 3 10 9 10 26 0 26 -15 36 -10 56 29 l16 29
-31 0 c-36 0 -117 -17 -141 -30 -9 -5 -20 -5 -25 0 -5 5 -47 3 -99 -6 -50 -8
-123 -20 -162 -26 -73 -10 -73 -10 -103 -59 -33 -54 -40 -59 -37 -29 1 11 5
20 10 20 5 0 5 6 -2 13 -8 10 -7 17 1 25 12 12 4 12 -122 -9 -36 -5 -99 -15
-140 -20 -41 -6 -80 -15 -86 -20 -7 -5 -14 -6 -16 -2 -6 15 -128 -7 -128 -23
0 -8 -4 -14 -10 -14 -5 0 -10 5 -10 11 0 7 -15 9 -42 5 -24 -3 -50 -6 -58 -7
-28 -2 -155 -20 -178 -25 -20 -4 -22 -7 -12 -19 7 -8 21 -15 32 -15 16 0 18
-3 9 -13 -6 -8 -8 -16 -5 -19 3 -3 -5 -8 -18 -11 -13 -4 -29 -20 -37 -37 -17
-39 -35 -47 -58 -25 -15 16 -16 18 -1 29 9 7 20 24 23 39 4 15 11 30 16 33 5
3 9 10 9 16 0 12 -124 5 -208 -12 -26 -5 -69 -11 -97 -14 -39 -4 -496 -68
-715 -100 -19 -3 -172 -24 -340 -47 -168 -23 -307 -43 -309 -45 -2 -2 4 -10
12 -19 18 -17 12 -45 -9 -45 -9 0 -14 11 -14 31 0 29 -2 31 -27 24 -16 -4 -62
-9 -103 -12 -41 -2 -80 -9 -86 -14 -7 -5 -25 -9 -40 -9 -16 0 -117 -13 -224
-29 -249 -39 -271 -39 -311 -3 -29 26 -32 34 -54 185 -13 87 -29 165 -35 172
-7 8 -9 19 -5 26 4 6 -1 72 -11 147 -16 111 -22 136 -36 140 -22 5 -23 18 -3
26 17 6 20 51 5 61 -5 3 -10 22 -10 41 0 35 -6 39 -58 34 -12 -1 -25 6 -28 14
-10 26 -24 19 -40 -19z"/>
<path d="M4537 1392 c-18 -19 -23 -42 -9 -41 4 0 17 13 30 30 17 21 20 29 9
29 -8 0 -21 -8 -30 -18z"/>
</g>
</svg>
